#!OML:ASF I:\golf\golf\golf 2\Subject 1\2002-09-07\Subject1.ASF
:FULLY-SPECIFIED
:DEGREES
215
root -7.36995 17.7435 2.35104 3.64257 51.1289 -12.7287
lowerback 7.90017 -10.4874 -17.2831
upperback 0.625879 -15.2923 -1.71659
thorax 0.257772 -7.57321 8.05373
lowerneck -6.63139 21.9347 -1.09392
upperneck 11.0779 31.4886 -12.028
head 6.26913 14.4259 -0.883705
rclavicle 6.95746e-014 -9.54166e-014
rhumerus 27.6038 -21.077 -63.6162
rradius 100.82
rwrist -5.45139
rhand -63.8101 38.6851
rfingers 7.12502
rthumb -35.771 12.3127
lclavicle 6.95746e-014 -9.54166e-014
lhumerus 106.674 -43.4806 46.9847
lradius 32.773
lwrist -2.19684
lhand -21.6475 0.957308
lfingers 7.12502
lthumb -175.251 -149.116
rfemur -36.1546 12.0155 23.8788
rtibia 34.04
rfoot -7.81413 17.6464
rtoes 15.7293
lfemur -12.8147 22.0417 0.936182
ltibia 29.7415
lfoot -10.035 12.7952
ltoes -21.7967
216
root -7.376 17.7508 2.29661 3.5225 52.1067 -13.0937
lowerback 8.04736 -10.5263 -17.106
upperback 0.768274 -15.3448 -1.43507
thorax 0.381756 -7.62786 8.2641
lowerneck -6.96932 21.8579 -1.44398
upperneck 11.0448 31.4128 -11.9681
head 6.24736 14.3722 -0.815761
rclavicle 3.97569e-015 -3.18055e-014
rhumerus 27.6186 -20.5027 -64.3696
rradius 100.302
rwrist -6.11183
rhand -63.7003 37.7599
rfingers 7.12502
rthumb -35.6669 11.3623
lclavicle 3.97569e-015 -3.18055e-014
lhumerus 106.072 -43.5585 47.2086
lradius 32.1506
lwrist -2.3695
lhand -21.5573 1.27314
lfingers 7.12502
lthumb -175.164 -148.802
rfemur -36.3848 11.4266 23.8112
rtibia 33.8413
rfoot -7.72827 17.1402
rtoes 15.1785
lfemur -13.7658 22.0683 0.724951
ltibia 29.7814
lfoot -10.2343 12.3222
ltoes -19.6901
217
root -7.38337 17.7535 2.2395 3.40852 53.1627 -13.4528
lowerback 8.09513 -10.21 -16.864
upperback 0.764484 -14.9174 -1.60486
thorax 0.133277 -7.3903 8.02525
lowerneck -5.77243 21.3531 0.406972
upperneck 11.1353 30.6134 -12.39
head 6.37174 14.08 -1.27175
rclavicle -9.30312e-014 -4.77083e-014
rhumerus 26.1018 -20.9338 -64.7712
rradius 99.9238
rwrist -6.76132
rhand -63.7413 37.3518
rfingers 7.12502
rthumb -35.7058 10.9635
lclavicle -9.30312e-014 -4.77083e-014
lhumerus 105.837 -45.2027 47.0821
lradius 31.702
lwrist -2.80625
lhand -21.1644 1.72394
lfingers 7.12502
lthumb -174.784 -148.36
rfemur -36.6641 10.7151 23.7375
rtibia 33.7053
rfoot -7.64133 16.7303
rtoes 14.7226
lfemur -14.7245 22.1249 0.444287
ltibia 29.7692
lfoot -10.3902 11.8782
ltoes -19.1609
218
root -7.38828 17.7599 2.1791 3.3764 54.2581 -13.7136
lowerback 7.77598 -9.37517 -16.2751
upperback 0.926229 -13.6847 -2.41781
thorax -0.168266 -6.74289 6.91101
lowerneck -4.26629 20.2188 4.00414
upperneck 11.7498 28.9578 -12.7452
head 6.7618 13.4318 -1.98941
rclavicle -1.07344e-014 6.04305e-014
rhumerus 23.165 -23.181 -64.8866
rradius 99.7793
rwrist -7.45839
rhand -63.7041 37.3692
rfingers 7.12502
rthumb -35.6706 10.9724
lclavicle -1.07344e-014 6.04305e-014
lhumerus 107.617 -48.2139 45.0431
lradius 31.5968
lwrist -2.29778
lhand -20.8244 2.19621
lfingers 7.12502
lthumb -174.456 -147.896
rfemur -36.9696 9.93975 23.5831
rtibia 33.6441
rfoot -7.6279 16.3487
rtoes 14.0443
lfemur -15.7126 22.1134 0.0482524
ltibia 29.7008
lfoot -10.6459 11.4282
ltoes -16.9233
219
root -7.39357 17.7672 2.1181 3.37984 55.3924 -13.9145
lowerback 7.89174 -9.67734 -16.3785
upperback 1.06081 -14.0998 -1.82439
thorax 0.189207 -7.00029 7.54374
lowerneck -5.09652 20.366 2.78816
upperneck 12.0729 29.2687 -12.5163
head 6.82292 13.4876 -1.67933
rclavicle 7.71285e-014 1.90833e-014
rhumerus 23.8353 -21.8771 -65.9351
rradius 99.1993
rwrist -8.41765
rhand -63.4268 37.4202
rfingers 7.12502
rthumb -35.4077 10.9603
lclavicle 7.71285e-014 1.90833e-014
lhumerus 105.767 -47.6949 46.4739
lradius 30.9542
lwrist -2.36624
lhand -20.66 2.42715
lfingers 7.12502
lthumb -174.297 -147.67
rfemur -37.2542 9.1344 23.3814
rtibia 33.5987
rfoot -7.60936 15.9239
rtoes 13.6728
lfemur -16.6783 21.9618 -0.392444
ltibia 29.645
lfoot -11.0214 10.9443
ltoes -13.8968
220
root -7.39904 17.7725 2.05572 3.30331 56.5691 -14.219
lowerback 7.99619 -9.7753 -16.3079
upperback 1.20136 -14.2304 -1.42078
thorax 0.406351 -7.10275 7.91433
lowerneck -5.75142 20.2887 2.27731
upperneck 12.4424 29.2611 -12.3959
head 6.9597 13.4157 -1.5147
rclavicle -7.15625e-015 -2.54444e-014
rhumerus 23.9172 -21.1841 -66.9092
rradius 98.6485
rwrist -9.27466
rhand -63.316 37.0687
rfingers 7.12502
rthumb -35.3026 10.5839
lclavicle -7.15625e-015 -2.54444e-014
lhumerus 104.467 -47.7684 47.4409
lradius 30.5168
lwrist -2.41813
lhand -19.7084 2.88244
lfingers 7.12502
lthumb -173.379 -147.241
rfemur -37.528 8.31782 23.2198
rtibia 33.5307
rfoot -7.53515 15.4792
rtoes 13.781
lfemur -17.6915 21.8204 -0.806216
ltibia 29.6339
lfoot -11.1617 10.4803
ltoes -13.0917
221
root -7.40461 17.7752 1.99085 3.07056 57.7622 -14.7081
lowerback 8.12794 -9.76858 -16.0883
upperback 1.27897 -14.2244 -1.0965
thorax 0.450077 -7.11855 8.1575
lowerneck -6.1444 20.0846 2.22942
upperneck 12.8519 29.0618 -12.34
head 7.12765 13.2764 -1.4572
rclavicle -1.62208e-013 -1.90833e-014
rhumerus 23.5564 -20.671 -67.6888
rradius 98.1132
rwrist -10.1215
rhand -63.3924 36.347
rfingers 7.12502
rthumb -35.375 9.87934
lclavicle -1.62208e-013 -1.90833e-014
lhumerus 103.144 -48.285 48.4063
lradius 30.1931
lwrist -2.29344
lhand -18.9653 3.36945
lfingers 7.12502
lthumb -172.661 -146.778
rfemur -37.7981 7.70694 23.0734
rtibia 33.4484
rfoot -7.55233 14.7799
rtoes 13.1082
lfemur -18.746 21.8065 -1.16817
ltibia 29.6589
lfoot -11.0579 9.94381
ltoes -12.9394
222
root -7.41189 17.7794 1.92373 2.65654 58.9985 -15.4039
lowerback 8.18902 -9.74945 -15.804
upperback 1.42851 -14.1758 -0.758237
thorax 0.588218 -7.12494 8.36172
lowerneck -6.25628 19.787 2.43929
upperneck 13.0074 28.7042 -12.543
head 7.23173 13.087 -1.55392
rclavicle 2.3059e-014 4.77083e-014
rhumerus 23.2303 -20.2297 -68.4276
rradius 97.566
rwrist -11.0761
rhand -63.3402 35.3216
rfingers 7.12502
rthumb -35.3255 8.8422
lclavicle 2.3059e-014 4.77083e-014
lhumerus 101.915 -48.7784 49.2031
lradius 29.6513
lwrist -2.65014
lhand -19.2172 3.71489
lfingers 7.12502
lthumb -172.905 -146.424
rfemur -38.0441 7.22146 22.9768
rtibia 33.3286
rfoot -7.66303 13.8574
rtoes 11.4994
lfemur -19.8725 21.863 -1.48035
ltibia 29.7388
lfoot -11 9.36381
ltoes -12.4361
223
root -7.41765 17.7853 1.85201 2.30212 60.285 -16.052
lowerback 8.11542 -9.73112 -15.4763
upperback 1.65136 -14.0932 -0.462865
thorax 0.84923 -7.12548 8.46455
lowerneck -6.44971 19.416 2.71269
upperneck 13.1463 28.2527 -12.8316
head 7.35759 12.8462 -1.686
rclavicle 2.77503e-013 3.18055e-015
rhumerus 22.9492 -19.8931 -69.264
rradius 96.9731
rwrist -11.7925
rhand -63.3772 34.4671
rfingers 7.12502
rthumb -35.3607 7.99603
lclavicle 2.77503e-013 3.18055e-015
lhumerus 100.8 -49.3285 50.0015
lradius 28.8995
lwrist -3.20123
lhand -19.2587 4.14865
lfingers 7.12502
lthumb -172.945 -145.989
rfemur -38.2864 6.63203 22.8319
rtibia 33.1698
rfoot -7.83969 12.9149
rtoes 9.15517
lfemur -21.0716 21.7682 -1.90487
ltibia 29.873
lfoot -11.1294 8.85735
ltoes -11.4188
224
root -7.42261 17.7921 1.77577 1.91809 61.676 -16.6344
lowerback 8.17252 -9.71583 -15.1565
upperback 1.85157 -14.0407 -0.200522
thorax 1.01425 -7.13017 8.56605
lowerneck -6.79382 19.0328 2.87349
upperneck 13.4586 27.7849 -12.8918
head 7.51144 12.5906 -1.7298
rclavicle 5.48646e-014 7.31528e-014
rhumerus 22.3895 -19.5397 -70.2015
rradius 96.4101
rwrist -12.3653
rhand -63.5789 33.058
rfingers 7.12502
rthumb -35.5519 6.63269
lclavicle 5.48646e-014 7.31528e-014
lhumerus 99.4253 -50.0115 51.0895
lradius 28.275
lwrist -3.38171
lhand -18.507 5.04784
lfingers 7.12502
lthumb -172.219 -145.115
rfemur -38.4217 5.87523 22.6496
rtibia 32.995
rfoot -8.07638 11.9726
rtoes 6.08129
lfemur -22.2126 21.3426 -2.37303
ltibia 30.0268
lfoot -11.3233 8.43762
ltoes -9.50721
225
root -7.43008 17.7985 1.70055 1.30615 63.1897 -17.439
lowerback 8.3012 -9.72532 -14.8338
upperback 2.03649 -14.0356 0.151104
thorax 1.15807 -7.15884 8.77164
lowerneck -7.11108 18.6856 2.85951
upperneck 13.7274 27.3517 -12.8439
head 7.60893 12.3585 -1.73062
rclavicle 1.19271e-013 -4.13472e-014
rhumerus 21.8462 -19.165 -71.0981
rradius 95.9342
rwrist -13.304
rhand -63.8018 29.8099
rfingers 7.12502
rthumb -35.7632 3.43556
lclavicle 1.19271e-013 -4.13472e-014
lhumerus 99.4428 -50.3965 50.1132
lradius 29.7396
lwrist -1.09633
lhand -15.6575 14.2385
lfingers 7.12502
lthumb -169.469 -136.045
rfemur -38.5374 5.08143 22.536
rtibia 32.8471
rfoot -8.2697 10.9528
rtoes 3.18029
lfemur -23.3774 20.8686 -2.75282
ltibia 30.1694
lfoot -11.3884 7.91342
ltoes -8.16702
226
root -7.43758 17.8052 1.62672 0.585726 64.6885 -18.3929
lowerback 8.3041 -9.69518 -14.3545
upperback 2.22231 -13.9461 0.474069
thorax 1.30409 -7.14228 8.84989
lowerneck -7.39356 18.2983 2.92651
upperneck 13.9538 26.8632 -12.8813
head 7.70628 12.1024 -1.77674
rclavicle 1.145e-013 -1.90833e-014
rhumerus 21.4461 -18.9493 -71.803
rradius 95.3913
rwrist -14.6305
rhand -63.9749 28.315
rfingers 7.12502
rthumb -35.9271 1.98059
lclavicle 1.145e-013 -1.90833e-014
lhumerus 96.5452 -51.2345 53.0939
lradius 27.4398
lwrist -4.08023
lhand -17.563 7.27495
lfingers 7.12502
lthumb -171.308 -142.924
rfemur -38.7043 4.42353 22.3806
rtibia 32.7431
rfoot -8.3358 9.86531
rtoes 1.31732
lfemur -24.5526 20.4884 -3.12808
ltibia 30.3007
lfoot -11.3111 7.29162
ltoes -8.19651
227
root -7.4453 17.8103 1.54612 -0.0321907 66.2671 -19.2439
lowerback 8.2304 -9.57492 -13.7963
upperback 2.43698 -13.7168 0.739038
thorax 1.45337 -7.05268 8.8177
lowerneck -7.75519 17.775 3.09115
upperneck 14.2321 26.1954 -12.9671
head 7.83912 11.7558 -1.86374
rclavicle -7.95139e-016 -4.13472e-014
rhumerus 20.9628 -19.1838 -72.4241
rradius 94.7338
rwrist -15.8852
rhand -63.4727 28.9282
rfingers 7.12502
rthumb -35.4512 2.47873
lclavicle -7.95139e-016 -4.13472e-014
lhumerus 95.4447 -52.0239 54.0628
lradius 26.7227
lwrist -3.66259
lhand -17.4264 7.13416
lfingers 7.12502
lthumb -171.176 -143.07
rfemur -38.8948 3.77493 22.032
rtibia 32.6564
rfoot -8.29958 8.73688
rtoes 0.419039
lfemur -25.7885 20.0972 -3.69393
ltibia 30.4181
lfoot -11.1255 6.71
ltoes -9.76961
228
root -7.45351 17.8137 1.466 -0.832267 67.9502 -20.3149
lowerback 8.06921 -9.48546 -13.4813
upperback 2.71629 -13.534 1.20697
thorax 1.84359 -7.01553 9.08608
lowerneck -8.3055 17.2465 3.10132
upperneck 14.5541 25.562 -13.1211
head 8.01206 11.4006 -1.93296
rclavicle 5.32743e-014 2.54444e-014
rhumerus 20.5798 -19.4647 -73.0997
rradius 94.0927
rwrist -16.5398
rhand -62.7766 28.7264
rfingers 7.12502
rthumb -34.791 2.12181
lclavicle 5.32743e-014 2.54444e-014
lhumerus 94.4524 -52.5509 54.9206
lradius 26.1714
lwrist -3.39308
lhand -17.1979 7.7467
lfingers 7.12502
lthumb -170.956 -142.467
rfemur -39.0788 3.20326 21.6503
rtibia 32.5737
rfoot -8.34421 7.4077
rtoes -0.735158
lfemur -27.1054 19.7294 -4.27608
ltibia 30.5088
lfoot -10.9543 6.04284
ltoes -11.5142
229
root -7.45856 17.8253 1.39055 -2.10599 69.6478 -21.8117
lowerback 7.8581 -9.50831 -13.2247
upperback 3.04727 -13.4986 1.71762
thorax 2.38014 -7.06606 9.40401
lowerneck -8.85909 16.8192 3.23722
upperneck 14.8548 25.0612 -13.3359
head 8.21467 11.1084 -2.01929
rclavicle 1.88448e-013 -3.18055e-014
rhumerus 20.0759 -19.1369 -73.9094
rradius 93.5103
rwrist -17.4409
rhand -62.9865 28.7202
rfingers 7.12502
rthumb -34.9901 2.16187
lclavicle 1.88448e-013 -3.18055e-014
lhumerus 92.7334 -52.8796 56.2815
lradius 25.7169
lwrist -3.55731
lhand -16.8437 8.57123
lfingers 7.12502
lthumb -170.614 -141.658
rfemur -39.1422 2.66921 21.3765
rtibia 32.5018
rfoot -8.47313 5.98255
rtoes -2.69496
lfemur -28.279 19.1106 -4.6507
ltibia 30.5814
lfoot -10.8551 5.31232
ltoes -11.4253
